%TF.GenerationSoftware,KiCad,Pcbnew,9.0.3*%
%TF.CreationDate,2026-05-13T00:59:26+02:00*%
%TF.ProjectId,supports de pile cr2025 GBC,73757070-6f72-4747-9320-64652070696c,rev?*%
%TF.SameCoordinates,Original*%
%TF.FileFunction,Other,User*%
%FSLAX46Y46*%
G04 Gerber Fmt 4.6, Leading zero omitted, Abs format (unit mm)*
G04 Created by KiCad (PCBNEW 9.0.3) date 2026-05-13 00:59:26*
%MOMM*%
%LPD*%
G01*
G04 APERTURE LIST*
G04 APERTURE END LIST*
G36*
X166304363Y-84030308D02*
G01*
X167145970Y-84089715D01*
X167153993Y-84090544D01*
X167697357Y-84164639D01*
X167704745Y-84165875D01*
X167975542Y-84219627D01*
X167980202Y-84220645D01*
X168477753Y-84339463D01*
X168482217Y-84340617D01*
X169134134Y-84522163D01*
X169139811Y-84523892D01*
X169362304Y-84597492D01*
X169369733Y-84600215D01*
X169888765Y-84809502D01*
X169891239Y-84810531D01*
X170307119Y-84988765D01*
X170312816Y-84991379D01*
X170750077Y-85205547D01*
X170755497Y-85208369D01*
X171175789Y-85440566D01*
X171182373Y-85444474D01*
X171705285Y-85777060D01*
X171711616Y-85781367D01*
X172213004Y-86145592D01*
X172219057Y-86150281D01*
X172697017Y-86544763D01*
X172702769Y-86549817D01*
X173155466Y-86973041D01*
X173160895Y-86978439D01*
X173391554Y-87222448D01*
X173392309Y-87223254D01*
X173618012Y-87466320D01*
X173622342Y-87471238D01*
X173673000Y-87531930D01*
X173675176Y-87534613D01*
X174048170Y-88007679D01*
X174051700Y-88012381D01*
X174547777Y-88706890D01*
X174552026Y-88713243D01*
X174741201Y-89015922D01*
X174744254Y-89021081D01*
X175006938Y-89490422D01*
X175010470Y-89497216D01*
X175248164Y-89991181D01*
X175251558Y-89998896D01*
X175539270Y-90718177D01*
X175540673Y-90721853D01*
X175619999Y-90939999D01*
X175620000Y-90940000D01*
X178736484Y-90949618D01*
X178803462Y-90969509D01*
X178849054Y-91022454D01*
X178860101Y-91073515D01*
X178869898Y-102985898D01*
X178850269Y-103052954D01*
X178797502Y-103098752D01*
X178745898Y-103110000D01*
X172670000Y-103110000D01*
X172670000Y-103916000D01*
X172650315Y-103983039D01*
X172597511Y-104028794D01*
X172546000Y-104040000D01*
X168460000Y-104040000D01*
X167449163Y-104242166D01*
X167439729Y-104243677D01*
X167333969Y-104256464D01*
X167329713Y-104256905D01*
X166485301Y-104329544D01*
X166474673Y-104330000D01*
X165564866Y-104330000D01*
X165555143Y-104329618D01*
X164711744Y-104263282D01*
X164705307Y-104262606D01*
X164621539Y-104251595D01*
X164616748Y-104250870D01*
X163975496Y-104140942D01*
X163964613Y-104138569D01*
X163330834Y-103970221D01*
X163329234Y-103969785D01*
X162834114Y-103831152D01*
X162825968Y-103828565D01*
X162244172Y-103621485D01*
X162235946Y-103618222D01*
X161672850Y-103371250D01*
X161667201Y-103368601D01*
X161034256Y-103052128D01*
X161025914Y-103047548D01*
X160499445Y-102731667D01*
X160496329Y-102729734D01*
X160259729Y-102578084D01*
X160253245Y-102573633D01*
X159707760Y-102173043D01*
X159701702Y-102168297D01*
X159662332Y-102135438D01*
X159659595Y-102133085D01*
X159082435Y-101622155D01*
X159077686Y-101617724D01*
X158519598Y-101068938D01*
X158515791Y-101065026D01*
X158457107Y-101002005D01*
X158452326Y-100996560D01*
X158002815Y-100453401D01*
X157997441Y-100446417D01*
X157552688Y-99823763D01*
X157547597Y-99816042D01*
X157210226Y-99260372D01*
X157209711Y-99259515D01*
X156933566Y-98796305D01*
X156931182Y-98792124D01*
X156916573Y-98765304D01*
X156913067Y-98758357D01*
X156772622Y-98456912D01*
X156771943Y-98455429D01*
X156631827Y-98144061D01*
X156628467Y-98135815D01*
X156371079Y-97432947D01*
X156369073Y-97427009D01*
X156158565Y-96747645D01*
X156156794Y-96741349D01*
X156139666Y-96673629D01*
X156138876Y-96670315D01*
X155999999Y-96049999D01*
X154333075Y-96040687D01*
X154266147Y-96020628D01*
X154220688Y-95967570D01*
X154209768Y-95916923D01*
X154191515Y-86224545D01*
X154191515Y-86224418D01*
X154190927Y-85544107D01*
X154210554Y-85477051D01*
X154263318Y-85431250D01*
X154314927Y-85420000D01*
X159900000Y-85420000D01*
X159900000Y-84594000D01*
X159919685Y-84526961D01*
X159972489Y-84481206D01*
X160024000Y-84470000D01*
X163009999Y-84470000D01*
X163067382Y-84452843D01*
X163072142Y-84451523D01*
X163816301Y-84260947D01*
X163823743Y-84259283D01*
X164287661Y-84170447D01*
X164292327Y-84169645D01*
X164740800Y-84101399D01*
X164745493Y-84100777D01*
X164762154Y-84098889D01*
X164764593Y-84098637D01*
X165347766Y-84044208D01*
X165352958Y-84043833D01*
X165620363Y-84030162D01*
X165626694Y-84030000D01*
X166295632Y-84030000D01*
X166304363Y-84030308D01*
G37*
M02*
