%TF.GenerationSoftware,KiCad,Pcbnew,9.0.3*%
%TF.CreationDate,2026-05-13T00:59:26+02:00*%
%TF.ProjectId,supports de pile cr2025 GBC,73757070-6f72-4747-9320-64652070696c,rev?*%
%TF.SameCoordinates,Original*%
%TF.FileFunction,Copper,L2,Bot*%
%TF.FilePolarity,Positive*%
%FSLAX46Y46*%
G04 Gerber Fmt 4.6, Leading zero omitted, Abs format (unit mm)*
G04 Created by KiCad (PCBNEW 9.0.3) date 2026-05-13 00:59:26*
%MOMM*%
%LPD*%
G01*
G04 APERTURE LIST*
%TA.AperFunction,ComponentPad*%
%ADD10R,8.000000X1.500000*%
%TD*%
G04 APERTURE END LIST*
D10*
%TO.P,,1*%
%TO.N,VCC*%
X155700000Y-84470000D03*
%TD*%
%TO.P,,1*%
%TO.N,GND*%
X176870000Y-104060000D03*
%TD*%
%TA.AperFunction,Conductor*%
%TO.N,GND*%
G36*
X166100477Y-84523175D02*
G01*
X166688662Y-84547632D01*
X166696252Y-84548183D01*
X167281842Y-84608897D01*
X167289374Y-84609915D01*
X167870072Y-84706651D01*
X167877532Y-84708131D01*
X168451178Y-84840527D01*
X168458552Y-84842471D01*
X169022890Y-85010007D01*
X169030130Y-85012401D01*
X169253719Y-85094104D01*
X169583064Y-85214452D01*
X169590171Y-85217301D01*
X169914629Y-85359130D01*
X170129557Y-85453081D01*
X170136464Y-85456357D01*
X170308549Y-85544607D01*
X170660267Y-85724976D01*
X170666969Y-85728678D01*
X171173207Y-86029121D01*
X171179667Y-86033230D01*
X171591322Y-86313271D01*
X171666392Y-86364339D01*
X171672587Y-86368840D01*
X172137929Y-86729344D01*
X172143834Y-86734217D01*
X172586063Y-87122773D01*
X172591655Y-87128001D01*
X173009069Y-87543119D01*
X173014301Y-87548654D01*
X173405302Y-87988747D01*
X173410190Y-87994603D01*
X173593042Y-88227961D01*
X173773270Y-88457970D01*
X173777804Y-88464139D01*
X174111592Y-88949028D01*
X174115737Y-88955466D01*
X174418968Y-89460041D01*
X174422707Y-89466723D01*
X174694206Y-89989025D01*
X174697521Y-89995915D01*
X174909568Y-90473806D01*
X174936277Y-90534000D01*
X174939165Y-90541092D01*
X175139765Y-91080808D01*
X175140796Y-91083690D01*
X175142222Y-91087838D01*
X175153306Y-91129373D01*
X175161238Y-91143144D01*
X175165109Y-91154403D01*
X175165117Y-91154598D01*
X175165354Y-91155122D01*
X175166630Y-91158909D01*
X175166631Y-91158910D01*
X175166632Y-91158913D01*
X175192021Y-91197098D01*
X175196194Y-91203834D01*
X175219082Y-91243570D01*
X175219083Y-91243572D01*
X175221900Y-91246395D01*
X175230584Y-91255097D01*
X175239598Y-91268653D01*
X175276973Y-91301580D01*
X175312171Y-91336851D01*
X175326267Y-91345008D01*
X175338481Y-91355769D01*
X175383100Y-91377898D01*
X175426232Y-91402860D01*
X175441958Y-91407091D01*
X175456542Y-91414324D01*
X175505379Y-91424154D01*
X175553491Y-91437098D01*
X175557475Y-91437101D01*
X175581820Y-91439539D01*
X175585735Y-91440328D01*
X175631499Y-91437432D01*
X175639448Y-91437186D01*
X178245630Y-91439858D01*
X178312646Y-91459611D01*
X178358347Y-91512462D01*
X178369500Y-91563858D01*
X178369500Y-102956000D01*
X178349815Y-103023039D01*
X178297011Y-103068794D01*
X178245500Y-103080000D01*
X172660000Y-103080000D01*
X172660000Y-103415500D01*
X172640315Y-103482539D01*
X172587511Y-103528294D01*
X172536000Y-103539500D01*
X168394102Y-103539500D01*
X168279055Y-103570326D01*
X168273353Y-103571710D01*
X167757229Y-103684127D01*
X167749578Y-103685544D01*
X167157704Y-103776027D01*
X167149980Y-103776961D01*
X166553590Y-103830149D01*
X166545822Y-103830596D01*
X165947298Y-103846274D01*
X165939518Y-103846234D01*
X165341171Y-103824346D01*
X165333408Y-103823818D01*
X164737610Y-103764446D01*
X164729896Y-103763432D01*
X164138993Y-103666813D01*
X164131358Y-103665317D01*
X163547684Y-103531832D01*
X163540157Y-103529860D01*
X162966017Y-103360035D01*
X162958629Y-103357596D01*
X162396232Y-103152085D01*
X162389012Y-103149186D01*
X161840647Y-102908825D01*
X161833623Y-102905480D01*
X161301388Y-102631191D01*
X161294587Y-102627411D01*
X160780627Y-102320297D01*
X160774076Y-102316099D01*
X160280363Y-101977339D01*
X160274089Y-101972738D01*
X159802596Y-101603685D01*
X159796623Y-101598699D01*
X159349219Y-101200818D01*
X159343570Y-101195468D01*
X158921975Y-100770284D01*
X158916695Y-100764614D01*
X158522605Y-100313840D01*
X158517670Y-100307825D01*
X158190732Y-99882765D01*
X158152609Y-99833200D01*
X158148098Y-99826938D01*
X157813502Y-99330326D01*
X157809378Y-99323768D01*
X157506612Y-98807192D01*
X157502910Y-98800395D01*
X157233137Y-98265850D01*
X157229851Y-98258798D01*
X156994136Y-97708394D01*
X156991299Y-97701149D01*
X156971284Y-97644903D01*
X156790565Y-97137041D01*
X156788198Y-97129664D01*
X156623230Y-96554054D01*
X156621333Y-96546555D01*
X156503391Y-96009964D01*
X156503144Y-96008812D01*
X156500500Y-95996213D01*
X156500500Y-95984108D01*
X156488780Y-95940371D01*
X156488079Y-95937027D01*
X156488098Y-95936779D01*
X156487550Y-95934366D01*
X156479843Y-95893176D01*
X156471429Y-95875614D01*
X156466392Y-95856814D01*
X156443068Y-95816417D01*
X156422904Y-95774327D01*
X156422903Y-95774326D01*
X156422903Y-95774325D01*
X156417718Y-95768276D01*
X156417716Y-95768274D01*
X156410231Y-95759540D01*
X156400500Y-95742686D01*
X156367515Y-95709701D01*
X156356345Y-95696668D01*
X156337145Y-95674265D01*
X156337144Y-95674264D01*
X156330563Y-95669758D01*
X156330563Y-95669757D01*
X156321072Y-95663258D01*
X156307314Y-95649500D01*
X156266921Y-95626178D01*
X156262985Y-95623483D01*
X156262984Y-95623482D01*
X156228415Y-95599812D01*
X156228407Y-95599808D01*
X156220888Y-95597160D01*
X156220888Y-95597159D01*
X156210042Y-95593339D01*
X156193186Y-95583608D01*
X156148116Y-95571531D01*
X156143622Y-95569948D01*
X156104111Y-95556034D01*
X156104110Y-95556033D01*
X156104108Y-95556033D01*
X156104105Y-95556032D01*
X156104098Y-95556031D01*
X156096152Y-95555419D01*
X156073597Y-95551563D01*
X156065901Y-95549501D01*
X156065893Y-95549500D01*
X156065892Y-95549500D01*
X156065889Y-95549500D01*
X156019235Y-95549500D01*
X155972713Y-95545919D01*
X155953576Y-95549500D01*
X154823961Y-95549500D01*
X154756922Y-95529815D01*
X154711167Y-95477011D01*
X154699961Y-95425607D01*
X154696506Y-91425182D01*
X154691428Y-85544606D01*
X154711055Y-85477551D01*
X154763819Y-85431750D01*
X154815428Y-85420500D01*
X159720738Y-85420500D01*
X159730916Y-85420000D01*
X159900000Y-85420000D01*
X159900000Y-85250915D01*
X159900001Y-85250519D01*
X159900027Y-85242121D01*
X159900500Y-85239748D01*
X159900500Y-85094416D01*
X159900501Y-85094104D01*
X159910422Y-85060709D01*
X159920185Y-85027461D01*
X159920339Y-85027327D01*
X159920399Y-85027127D01*
X159946929Y-85004286D01*
X159972989Y-84981706D01*
X159973215Y-84981656D01*
X159973349Y-84981542D01*
X159974461Y-84981385D01*
X160024500Y-84970500D01*
X162939288Y-84970500D01*
X162954192Y-84972187D01*
X162954230Y-84971795D01*
X162962309Y-84972560D01*
X162962320Y-84972563D01*
X163019112Y-84970500D01*
X163075892Y-84970500D01*
X163084795Y-84968113D01*
X163085715Y-84968079D01*
X163094018Y-84967779D01*
X163146302Y-84951713D01*
X163149366Y-84950816D01*
X163149751Y-84950708D01*
X163203186Y-84936392D01*
X163205047Y-84935316D01*
X163214528Y-84932678D01*
X163214623Y-84932679D01*
X163215026Y-84932541D01*
X163728494Y-84791964D01*
X163735885Y-84790184D01*
X164312214Y-84670068D01*
X164319720Y-84668744D01*
X164902343Y-84584430D01*
X164909939Y-84583569D01*
X165496656Y-84535375D01*
X165504256Y-84534987D01*
X166092839Y-84523094D01*
X166100477Y-84523175D01*
G37*
%TD.AperFunction*%
%TD*%
M02*
