%TF.GenerationSoftware,KiCad,Pcbnew,9.0.3*%
%TF.CreationDate,2026-05-13T00:59:26+02:00*%
%TF.ProjectId,supports de pile cr2025 GBC,73757070-6f72-4747-9320-64652070696c,rev?*%
%TF.SameCoordinates,Original*%
%TF.FileFunction,Legend,Bot*%
%TF.FilePolarity,Positive*%
%FSLAX46Y46*%
G04 Gerber Fmt 4.6, Leading zero omitted, Abs format (unit mm)*
G04 Created by KiCad (PCBNEW 9.0.3) date 2026-05-13 00:59:26*
%MOMM*%
%LPD*%
G01*
G04 APERTURE LIST*
%ADD10C,0.000000*%
G04 APERTURE END LIST*
D10*
%TO.C,REF\u002A\u002A*%
G36*
X164961853Y-93440106D02*
G01*
X165124695Y-93518449D01*
X165263458Y-93637220D01*
X165293824Y-93673322D01*
X165343088Y-93759355D01*
X165346711Y-93832523D01*
X165305063Y-93895114D01*
X165303985Y-93896088D01*
X165278787Y-93915807D01*
X165250558Y-93925511D01*
X165208112Y-93925158D01*
X165140264Y-93914708D01*
X165035827Y-93894120D01*
X164896424Y-93872660D01*
X164672014Y-93870239D01*
X164453360Y-93910920D01*
X164234395Y-93996079D01*
X164009049Y-94127094D01*
X163934635Y-94175257D01*
X163856007Y-94218752D01*
X163795456Y-94239746D01*
X163741571Y-94243193D01*
X163735953Y-94242801D01*
X163681811Y-94233880D01*
X163657775Y-94207394D01*
X163648623Y-94147703D01*
X163649017Y-94102233D01*
X163679611Y-93986828D01*
X163746543Y-93866134D01*
X163843300Y-93748665D01*
X163963365Y-93642937D01*
X164100225Y-93557465D01*
X164143830Y-93536097D01*
X164365922Y-93450186D01*
X164578761Y-93405720D01*
X164778640Y-93402445D01*
X164961853Y-93440106D01*
G37*
G36*
X169290729Y-100097895D02*
G01*
X169326993Y-100143735D01*
X169334030Y-100220625D01*
X169311628Y-100323824D01*
X169259576Y-100448593D01*
X169234309Y-100494744D01*
X169121356Y-100645300D01*
X168971601Y-100785074D01*
X168794279Y-100907404D01*
X168598623Y-101005629D01*
X168393869Y-101073086D01*
X168222669Y-101102633D01*
X168005037Y-101108344D01*
X167794784Y-101080404D01*
X167600461Y-101020823D01*
X167430623Y-100931608D01*
X167293821Y-100814768D01*
X167257480Y-100770222D01*
X167215403Y-100686450D01*
X167219957Y-100616418D01*
X167271168Y-100560441D01*
X167299349Y-100543813D01*
X167329682Y-100536465D01*
X167368753Y-100544168D01*
X167428077Y-100569447D01*
X167519173Y-100614829D01*
X167548737Y-100629705D01*
X167641721Y-100672491D01*
X167720360Y-100697840D01*
X167805713Y-100711184D01*
X167918839Y-100717957D01*
X167978281Y-100719444D01*
X168198987Y-100706520D01*
X168399558Y-100660813D01*
X168588578Y-100578833D01*
X168774627Y-100457091D01*
X168966286Y-100292099D01*
X169047521Y-100216763D01*
X169135751Y-100142464D01*
X169199666Y-100100154D01*
X169243446Y-100086739D01*
X169290729Y-100097895D01*
G37*
G36*
X170121274Y-92841595D02*
G01*
X170266617Y-92869619D01*
X170396293Y-92917219D01*
X170459542Y-92953224D01*
X170559300Y-93023312D01*
X170663377Y-93108025D01*
X170760311Y-93197277D01*
X170838643Y-93280979D01*
X170886912Y-93349045D01*
X170892139Y-93359586D01*
X170918487Y-93445304D01*
X170914029Y-93517579D01*
X170879216Y-93563821D01*
X170870566Y-93568981D01*
X170849886Y-93580465D01*
X170829279Y-93584501D01*
X170799834Y-93578542D01*
X170752641Y-93560040D01*
X170678789Y-93526445D01*
X170569368Y-93475211D01*
X170467488Y-93428691D01*
X170378330Y-93392726D01*
X170305702Y-93371841D01*
X170235253Y-93362045D01*
X170152629Y-93359349D01*
X170079673Y-93362036D01*
X169923516Y-93381544D01*
X169758819Y-93417070D01*
X169705999Y-93430255D01*
X169610430Y-93450389D01*
X169536269Y-93461150D01*
X169496271Y-93460429D01*
X169479225Y-93445336D01*
X169460969Y-93390807D01*
X169456401Y-93312529D01*
X169465831Y-93225148D01*
X169489568Y-93143314D01*
X169517226Y-93093550D01*
X169591905Y-93006433D01*
X169688976Y-92926523D01*
X169793298Y-92867565D01*
X169849156Y-92849676D01*
X169976657Y-92834497D01*
X170121274Y-92841595D01*
G37*
G36*
X163810155Y-98815478D02*
G01*
X163882767Y-98846494D01*
X163941963Y-98892714D01*
X163975820Y-98943031D01*
X163974147Y-98986800D01*
X163946007Y-99015381D01*
X163863699Y-99057483D01*
X163733374Y-99098037D01*
X163554626Y-99137189D01*
X163383510Y-99173954D01*
X163190260Y-99227543D01*
X162991586Y-99296784D01*
X162775931Y-99385759D01*
X162531738Y-99498552D01*
X162342604Y-99591082D01*
X162165611Y-99682512D01*
X162015383Y-99766960D01*
X161882095Y-99850271D01*
X161755921Y-99938292D01*
X161627036Y-100036870D01*
X161553461Y-100093730D01*
X161456076Y-100165038D01*
X161371221Y-100222951D01*
X161311475Y-100258629D01*
X161303641Y-100262438D01*
X161212795Y-100292904D01*
X161128302Y-100301037D01*
X161074556Y-100293352D01*
X161049808Y-100272491D01*
X161047548Y-100226231D01*
X161059264Y-100176064D01*
X161094274Y-100114109D01*
X161156703Y-100040372D01*
X161250946Y-99949728D01*
X161381397Y-99837056D01*
X161513101Y-99730755D01*
X161857834Y-99487845D01*
X162216972Y-99285311D01*
X162524122Y-99139190D01*
X162809754Y-99017844D01*
X163070536Y-98922374D01*
X163303717Y-98853591D01*
X163506547Y-98812307D01*
X163676277Y-98799332D01*
X163810155Y-98815478D01*
G37*
G36*
X162390025Y-96611267D02*
G01*
X162467145Y-96646602D01*
X162506208Y-96705276D01*
X162504061Y-96785839D01*
X162493440Y-96801985D01*
X162441973Y-96842891D01*
X162353017Y-96896902D01*
X162231588Y-96960796D01*
X162175036Y-96989287D01*
X162088083Y-97035814D01*
X162014300Y-97081338D01*
X161944273Y-97133093D01*
X161868590Y-97198313D01*
X161777837Y-97284234D01*
X161662600Y-97398091D01*
X161585076Y-97476606D01*
X161384981Y-97692735D01*
X161218226Y-97894494D01*
X161087655Y-98078286D01*
X160996111Y-98240519D01*
X160975245Y-98285009D01*
X160945096Y-98356346D01*
X160937085Y-98399907D01*
X160955887Y-98417694D01*
X161006173Y-98411712D01*
X161092616Y-98383962D01*
X161219889Y-98336449D01*
X161476746Y-98243290D01*
X161759634Y-98154290D01*
X162027210Y-98087699D01*
X162293124Y-98040693D01*
X162571022Y-98010450D01*
X162874552Y-97994144D01*
X162913783Y-97992984D01*
X163184128Y-97991220D01*
X163407990Y-98001825D01*
X163585207Y-98024768D01*
X163715617Y-98060021D01*
X163799058Y-98107554D01*
X163835369Y-98167338D01*
X163835448Y-98167752D01*
X163837877Y-98197548D01*
X163828835Y-98220616D01*
X163802981Y-98237848D01*
X163754978Y-98250135D01*
X163679486Y-98258370D01*
X163571167Y-98263445D01*
X163424682Y-98266250D01*
X163234692Y-98267679D01*
X163142644Y-98268302D01*
X162950816Y-98271249D01*
X162797060Y-98276592D01*
X162673772Y-98284777D01*
X162573349Y-98296249D01*
X162488187Y-98311454D01*
X162228392Y-98371469D01*
X161792228Y-98493750D01*
X161400055Y-98633512D01*
X161052502Y-98790519D01*
X160750197Y-98964535D01*
X160706901Y-98992496D01*
X160619990Y-99046831D01*
X160549327Y-99088685D01*
X160507094Y-99110729D01*
X160460946Y-99127852D01*
X160430102Y-99128844D01*
X160396489Y-99110877D01*
X160392805Y-99108080D01*
X160370100Y-99061989D01*
X160356220Y-98978433D01*
X160350761Y-98866679D01*
X160353320Y-98735994D01*
X160363496Y-98595643D01*
X160380884Y-98454894D01*
X160405082Y-98323012D01*
X160435687Y-98209266D01*
X160454705Y-98158433D01*
X160493758Y-98065542D01*
X160543541Y-97954559D01*
X160597769Y-97839816D01*
X160632588Y-97769509D01*
X160682884Y-97676352D01*
X160734212Y-97596372D01*
X160795163Y-97517861D01*
X160874329Y-97429108D01*
X160980299Y-97318403D01*
X161126114Y-97176074D01*
X161379356Y-96965111D01*
X161631229Y-96801909D01*
X161882770Y-96685837D01*
X162135019Y-96616262D01*
X162278002Y-96600719D01*
X162390025Y-96611267D01*
G37*
G36*
X171548313Y-95942522D02*
G01*
X171484549Y-96180593D01*
X171373622Y-96409660D01*
X171371877Y-96412554D01*
X171244298Y-96602337D01*
X171117029Y-96746995D01*
X170986425Y-96850033D01*
X170848845Y-96914961D01*
X170836212Y-96917898D01*
X170772273Y-96923702D01*
X170675074Y-96926231D01*
X170555988Y-96925815D01*
X170426387Y-96922786D01*
X170297645Y-96917474D01*
X170181132Y-96910210D01*
X170088223Y-96901325D01*
X170030289Y-96891150D01*
X169977637Y-96873607D01*
X169805833Y-96787942D01*
X169644328Y-96666828D01*
X169505016Y-96520316D01*
X169399795Y-96358457D01*
X169320365Y-96158390D01*
X169271055Y-95931871D01*
X169254208Y-95694403D01*
X169268708Y-95454728D01*
X169277622Y-95408272D01*
X169751496Y-95408272D01*
X169755366Y-95490542D01*
X169756799Y-95506766D01*
X169769871Y-95587879D01*
X169795985Y-95643739D01*
X169843970Y-95694688D01*
X169872857Y-95717422D01*
X169972079Y-95760154D01*
X170076188Y-95762004D01*
X170174611Y-95726148D01*
X170256778Y-95655762D01*
X170312117Y-95554023D01*
X170313032Y-95551208D01*
X170324797Y-95452497D01*
X170292567Y-95358759D01*
X170214216Y-95263689D01*
X170208945Y-95258698D01*
X170157753Y-95220116D01*
X170099878Y-95202274D01*
X170014500Y-95198360D01*
X169979554Y-95199013D01*
X169910636Y-95206997D01*
X169862298Y-95230448D01*
X169814074Y-95277442D01*
X169788573Y-95307367D01*
X169760702Y-95353979D01*
X169751496Y-95408272D01*
X169277622Y-95408272D01*
X169313442Y-95221584D01*
X169387293Y-95003713D01*
X169489148Y-94809855D01*
X169507466Y-94786932D01*
X170251286Y-94786932D01*
X170474328Y-95012845D01*
X170477419Y-95015980D01*
X170566992Y-95110736D01*
X170647463Y-95202749D01*
X170710130Y-95281644D01*
X170746294Y-95337052D01*
X170777647Y-95409693D01*
X170788697Y-95452497D01*
X170826461Y-95598779D01*
X170844613Y-95817128D01*
X170832244Y-96058778D01*
X170789497Y-96317767D01*
X170716512Y-96588134D01*
X170709016Y-96626393D01*
X170723755Y-96639552D01*
X170766671Y-96620734D01*
X170841622Y-96569361D01*
X170843796Y-96567751D01*
X170946616Y-96468455D01*
X171043267Y-96333638D01*
X171126800Y-96176344D01*
X171190267Y-96009617D01*
X171226719Y-95846499D01*
X171231116Y-95804567D01*
X171225176Y-95617937D01*
X171181317Y-95435580D01*
X171104496Y-95263850D01*
X170999674Y-95109099D01*
X170871809Y-94977679D01*
X170725860Y-94875943D01*
X170566786Y-94810243D01*
X170399547Y-94786932D01*
X170251286Y-94786932D01*
X169507466Y-94786932D01*
X169617890Y-94648750D01*
X169649368Y-94618857D01*
X169813476Y-94502069D01*
X170001046Y-94422558D01*
X170204297Y-94381297D01*
X170415449Y-94379262D01*
X170626721Y-94417428D01*
X170830334Y-94496771D01*
X170839978Y-94501915D01*
X170923537Y-94559449D01*
X171023448Y-94644929D01*
X171129358Y-94747819D01*
X171230910Y-94857582D01*
X171317752Y-94963683D01*
X171379527Y-95055585D01*
X171456469Y-95211995D01*
X171534290Y-95454451D01*
X171564899Y-95699217D01*
X171557717Y-95804567D01*
X171548313Y-95942522D01*
G37*
G36*
X166201480Y-96548307D02*
G01*
X166171127Y-96731268D01*
X166110863Y-96891716D01*
X166015532Y-97042218D01*
X165879975Y-97195341D01*
X165879233Y-97196089D01*
X165673802Y-97368726D01*
X165441189Y-97502254D01*
X165186259Y-97594418D01*
X164913879Y-97642962D01*
X164681011Y-97647552D01*
X164434433Y-97609939D01*
X164205392Y-97526749D01*
X163993512Y-97397840D01*
X163798419Y-97223071D01*
X163688304Y-97091556D01*
X163558725Y-96877071D01*
X163473171Y-96646478D01*
X163432213Y-96403937D01*
X163436417Y-96153602D01*
X163455099Y-96058592D01*
X164303302Y-96058592D01*
X164306785Y-96093533D01*
X164335023Y-96157248D01*
X164398121Y-96230766D01*
X164434972Y-96266376D01*
X164487655Y-96305490D01*
X164543467Y-96322117D01*
X164624706Y-96325585D01*
X164672031Y-96323330D01*
X164792241Y-96292977D01*
X164882804Y-96232022D01*
X164939014Y-96146619D01*
X164956161Y-96042922D01*
X164929538Y-95927088D01*
X164917040Y-95900559D01*
X164848790Y-95814646D01*
X164759608Y-95762811D01*
X164658750Y-95743111D01*
X164555473Y-95753601D01*
X164459033Y-95792338D01*
X164378687Y-95857378D01*
X164323691Y-95946777D01*
X164303302Y-96058592D01*
X163455099Y-96058592D01*
X163486355Y-95899633D01*
X163582594Y-95646185D01*
X163620639Y-95574457D01*
X163740604Y-95404325D01*
X163766033Y-95377342D01*
X164987148Y-95377342D01*
X164993383Y-95391509D01*
X165027036Y-95436999D01*
X165083310Y-95502441D01*
X165154744Y-95578864D01*
X165249749Y-95686909D01*
X165367830Y-95856172D01*
X165460361Y-96033460D01*
X165463755Y-96042922D01*
X165523645Y-96209878D01*
X165553988Y-96376532D01*
X165547693Y-96524528D01*
X165536879Y-96575391D01*
X165475722Y-96771586D01*
X165391066Y-96948978D01*
X165376756Y-96971567D01*
X165312188Y-97054402D01*
X165230287Y-97141981D01*
X165145916Y-97219213D01*
X165073940Y-97271003D01*
X165050394Y-97291761D01*
X165046219Y-97323716D01*
X165058407Y-97334899D01*
X165112487Y-97346060D01*
X165193459Y-97339127D01*
X165289545Y-97316534D01*
X165388972Y-97280713D01*
X165479962Y-97234097D01*
X165553804Y-97180079D01*
X165661344Y-97076386D01*
X165756708Y-96957927D01*
X165824018Y-96842760D01*
X165849373Y-96769076D01*
X165875329Y-96633324D01*
X165887645Y-96477768D01*
X165885270Y-96318717D01*
X165867154Y-96172480D01*
X165841465Y-96068059D01*
X165759202Y-95864975D01*
X165641979Y-95684925D01*
X165495099Y-95535224D01*
X165323867Y-95423186D01*
X165232460Y-95384625D01*
X165141014Y-95358573D01*
X165062590Y-95347714D01*
X165007773Y-95353490D01*
X164987148Y-95377342D01*
X163766033Y-95377342D01*
X163893207Y-95242395D01*
X164067272Y-95098408D01*
X164251623Y-94982103D01*
X164435085Y-94903222D01*
X164455312Y-94897155D01*
X164626692Y-94867160D01*
X164816531Y-94864832D01*
X165006215Y-94889261D01*
X165177130Y-94939536D01*
X165188693Y-94944261D01*
X165445016Y-95073492D01*
X165668530Y-95234615D01*
X165856769Y-95424144D01*
X166007270Y-95638597D01*
X166117570Y-95874489D01*
X166185203Y-96128337D01*
X166207705Y-96396656D01*
X166204375Y-96477768D01*
X166201480Y-96548307D01*
G37*
G36*
X169100041Y-97073093D02*
G01*
X169113266Y-97213662D01*
X169080007Y-97361747D01*
X169047884Y-97423855D01*
X168970064Y-97524828D01*
X168862879Y-97630854D01*
X168735049Y-97732557D01*
X168724927Y-97739814D01*
X168694863Y-97764633D01*
X168676688Y-97793106D01*
X168667609Y-97836532D01*
X168664831Y-97906205D01*
X168665557Y-98013423D01*
X168670113Y-98119809D01*
X168699427Y-98322441D01*
X168753912Y-98495931D01*
X168831576Y-98632843D01*
X168840245Y-98643675D01*
X168935055Y-98726545D01*
X169064705Y-98797541D01*
X169217290Y-98853093D01*
X169380903Y-98889630D01*
X169543638Y-98903581D01*
X169693591Y-98891376D01*
X169714612Y-98887199D01*
X169899618Y-98832265D01*
X170057359Y-98751912D01*
X170181223Y-98650307D01*
X170264593Y-98531618D01*
X170269163Y-98521994D01*
X170294965Y-98455489D01*
X170312370Y-98379467D01*
X170323637Y-98280826D01*
X170331025Y-98146467D01*
X170336682Y-98033406D01*
X170348514Y-97911436D01*
X170367147Y-97833658D01*
X170395239Y-97797362D01*
X170435448Y-97799842D01*
X170490433Y-97838389D01*
X170562850Y-97910297D01*
X170574906Y-97923427D01*
X170653874Y-98028254D01*
X170691463Y-98120229D01*
X170698524Y-98169271D01*
X170698963Y-98332019D01*
X170670667Y-98498534D01*
X170616996Y-98645130D01*
X170616453Y-98646199D01*
X170521704Y-98790052D01*
X170389866Y-98930882D01*
X170232211Y-99059483D01*
X170060010Y-99166653D01*
X169884536Y-99243189D01*
X169843365Y-99254451D01*
X169727710Y-99272568D01*
X169587612Y-99282315D01*
X169439255Y-99283354D01*
X169298826Y-99275342D01*
X169182511Y-99257942D01*
X169177264Y-99256743D01*
X169083898Y-99231178D01*
X168974488Y-99195467D01*
X168864827Y-99155365D01*
X168770704Y-99116627D01*
X168707910Y-99085005D01*
X168688982Y-99077064D01*
X168660697Y-99078304D01*
X168619592Y-99094272D01*
X168558926Y-99128369D01*
X168471955Y-99183996D01*
X168351937Y-99264555D01*
X168173293Y-99382579D01*
X167968549Y-99507301D01*
X167788082Y-99603022D01*
X167625835Y-99672591D01*
X167475748Y-99718861D01*
X167331764Y-99744683D01*
X167323713Y-99745572D01*
X167215838Y-99752649D01*
X167087737Y-99754773D01*
X166965418Y-99751462D01*
X166775485Y-99734957D01*
X166493866Y-99685707D01*
X166243105Y-99609548D01*
X166026447Y-99507818D01*
X165847133Y-99381853D01*
X165708407Y-99232992D01*
X165621306Y-99114336D01*
X165529101Y-99164841D01*
X165484710Y-99185824D01*
X165393262Y-99202365D01*
X165319487Y-99173593D01*
X165264085Y-99099680D01*
X165256388Y-99082139D01*
X165237401Y-98975275D01*
X165264655Y-98862006D01*
X165338720Y-98739593D01*
X165406143Y-98665920D01*
X165502264Y-98591940D01*
X165605991Y-98537105D01*
X165708517Y-98504091D01*
X165801030Y-98495575D01*
X165874722Y-98514233D01*
X165920783Y-98562742D01*
X165933831Y-98600523D01*
X165933842Y-98655888D01*
X165911360Y-98732909D01*
X165896612Y-98775413D01*
X165885720Y-98827224D01*
X165895940Y-98868785D01*
X165929414Y-98922587D01*
X165960023Y-98962047D01*
X166069304Y-99060274D01*
X166218580Y-99152885D01*
X166401508Y-99236799D01*
X166611747Y-99308937D01*
X166842955Y-99366220D01*
X166930112Y-99381688D01*
X167127465Y-99395649D01*
X167320037Y-99375291D01*
X167526252Y-99319350D01*
X167646230Y-99273921D01*
X167863011Y-99160422D01*
X168039189Y-99020421D01*
X168174288Y-98854577D01*
X168267834Y-98663548D01*
X168319351Y-98447991D01*
X168328366Y-98208563D01*
X168326741Y-98177036D01*
X168317118Y-98058157D01*
X168298335Y-97971702D01*
X168263002Y-97907965D01*
X168203729Y-97857238D01*
X168113125Y-97809813D01*
X167983800Y-97755983D01*
X167827756Y-97689437D01*
X167643154Y-97593901D01*
X167503520Y-97496765D01*
X167406589Y-97396010D01*
X167350092Y-97289619D01*
X167331764Y-97175574D01*
X167334772Y-97115265D01*
X167341798Y-97091497D01*
X167778996Y-97091497D01*
X167802740Y-97124558D01*
X167820414Y-97137299D01*
X167891769Y-97160000D01*
X167994785Y-97171986D01*
X168118345Y-97174052D01*
X168251332Y-97166996D01*
X168382626Y-97151614D01*
X168501110Y-97128702D01*
X168595667Y-97099058D01*
X168655179Y-97063478D01*
X168661119Y-97039748D01*
X168627856Y-97017983D01*
X168560513Y-97001122D01*
X168466723Y-96989756D01*
X168354118Y-96984479D01*
X168230330Y-96985881D01*
X168102990Y-96994555D01*
X167979730Y-97011092D01*
X167914670Y-97023152D01*
X167830026Y-97043958D01*
X167786446Y-97065685D01*
X167778996Y-97091497D01*
X167341798Y-97091497D01*
X167355577Y-97044889D01*
X167404855Y-96976731D01*
X167418673Y-96961801D01*
X167534627Y-96874131D01*
X167693098Y-96804059D01*
X167891141Y-96752388D01*
X168125812Y-96719918D01*
X168394168Y-96707450D01*
X168481634Y-96707015D01*
X168590502Y-96708277D01*
X168668762Y-96713274D01*
X168727680Y-96723502D01*
X168778516Y-96740454D01*
X168832536Y-96765626D01*
X168943424Y-96836884D01*
X169042653Y-96945635D01*
X169085027Y-97039748D01*
X169100041Y-97073093D01*
G37*
G36*
X170016406Y-88986149D02*
G01*
X170067595Y-89027856D01*
X170093072Y-89045561D01*
X170105650Y-89054302D01*
X170133547Y-89068209D01*
X170154268Y-89072302D01*
X170199674Y-89075299D01*
X170299138Y-89088486D01*
X170432238Y-89110646D01*
X170590891Y-89140111D01*
X170767016Y-89175208D01*
X170952531Y-89214268D01*
X171139354Y-89255619D01*
X171319402Y-89297592D01*
X171484595Y-89338514D01*
X171626850Y-89376716D01*
X171732835Y-89407283D01*
X172030805Y-89500384D01*
X172280603Y-89590493D01*
X172482658Y-89677809D01*
X172637399Y-89762532D01*
X172745253Y-89844861D01*
X172806650Y-89924995D01*
X172823198Y-89976410D01*
X172829735Y-90047754D01*
X172824929Y-90142309D01*
X172808133Y-90264757D01*
X172807763Y-90266707D01*
X172778701Y-90419780D01*
X172735985Y-90612060D01*
X172679337Y-90846279D01*
X172647031Y-90972512D01*
X172602187Y-91140133D01*
X172551871Y-91322128D01*
X172498645Y-91509697D01*
X172445070Y-91694039D01*
X172393709Y-91866353D01*
X172347123Y-92017838D01*
X172307875Y-92139695D01*
X172278526Y-92223123D01*
X172277679Y-92225715D01*
X172286681Y-92254233D01*
X172331483Y-92289570D01*
X172417364Y-92336018D01*
X172513557Y-92389393D01*
X172659879Y-92485029D01*
X172822547Y-92603747D01*
X172992434Y-92738017D01*
X173160414Y-92880310D01*
X173317359Y-93023096D01*
X173454144Y-93158846D01*
X173561641Y-93280031D01*
X173641141Y-93387503D01*
X173765008Y-93591812D01*
X173874719Y-93817744D01*
X173964679Y-94051789D01*
X174029289Y-94280439D01*
X174062955Y-94490184D01*
X174065393Y-94667606D01*
X174033457Y-94850103D01*
X173962871Y-95006143D01*
X173852644Y-95138778D01*
X173827793Y-95161607D01*
X173739019Y-95232922D01*
X173647396Y-95285080D01*
X173530252Y-95331644D01*
X173527743Y-95332591D01*
X173513542Y-95344883D01*
X173512438Y-95370534D01*
X173526650Y-95417110D01*
X173558395Y-95492178D01*
X173609893Y-95603306D01*
X173643632Y-95677071D01*
X173704986Y-95820316D01*
X173762358Y-95964303D01*
X173806725Y-96086863D01*
X173827536Y-96148949D01*
X173856621Y-96234631D01*
X173877363Y-96294335D01*
X173886255Y-96317864D01*
X173901269Y-96317476D01*
X173955941Y-96311927D01*
X174040979Y-96301762D01*
X174146222Y-96288141D01*
X174226276Y-96278325D01*
X174381374Y-96262354D01*
X174545864Y-96248323D01*
X174695321Y-96238441D01*
X174800904Y-96233499D01*
X174899053Y-96231548D01*
X174965012Y-96235020D01*
X175008001Y-96244514D01*
X175037245Y-96260628D01*
X175044066Y-96266045D01*
X175071453Y-96301894D01*
X175059449Y-96342472D01*
X175059356Y-96342626D01*
X175031974Y-96367127D01*
X174977109Y-96391988D01*
X174890560Y-96418321D01*
X174768126Y-96447237D01*
X174605607Y-96479848D01*
X174398803Y-96517264D01*
X174280442Y-96538871D01*
X174172498Y-96560371D01*
X174089012Y-96578900D01*
X174041855Y-96591975D01*
X174040706Y-96592412D01*
X174007219Y-96607669D01*
X173993301Y-96629034D01*
X173996479Y-96670242D01*
X174014279Y-96745027D01*
X174028394Y-96806809D01*
X174049868Y-96912476D01*
X174073386Y-97037581D01*
X174095903Y-97166396D01*
X174096129Y-97167748D01*
X174116501Y-97281690D01*
X174135997Y-97377388D01*
X174152415Y-97444833D01*
X174163555Y-97474018D01*
X174170967Y-97477416D01*
X174218550Y-97490510D01*
X174301342Y-97509303D01*
X174410348Y-97531818D01*
X174536571Y-97556074D01*
X174614494Y-97570726D01*
X174785264Y-97604928D01*
X174915566Y-97635157D01*
X175011127Y-97663267D01*
X175077677Y-97691111D01*
X175120942Y-97720540D01*
X175146652Y-97753408D01*
X175166698Y-97805996D01*
X175158670Y-97856688D01*
X175111161Y-97888838D01*
X175022564Y-97902915D01*
X174891270Y-97899387D01*
X174715670Y-97878721D01*
X174637752Y-97868073D01*
X174510594Y-97853518D01*
X174396007Y-97843528D01*
X174311799Y-97839816D01*
X174173218Y-97839816D01*
X174157975Y-97955826D01*
X174149299Y-98019753D01*
X174086808Y-98388234D01*
X174007547Y-98717385D01*
X173909799Y-99013426D01*
X173791848Y-99282575D01*
X173700036Y-99456158D01*
X173478364Y-99811135D01*
X173224246Y-100143867D01*
X172942735Y-100449140D01*
X172638883Y-100721740D01*
X172317740Y-100956453D01*
X171984360Y-101148065D01*
X171876505Y-101201138D01*
X171780448Y-101247173D01*
X171707083Y-101281020D01*
X171666860Y-101297754D01*
X171640935Y-101307786D01*
X171641597Y-101319548D01*
X171685227Y-101337211D01*
X171728912Y-101362798D01*
X171765137Y-101425241D01*
X171769391Y-101512231D01*
X171743744Y-101618359D01*
X171690263Y-101738216D01*
X171611019Y-101866392D01*
X171508080Y-101997479D01*
X171383514Y-102126066D01*
X171184505Y-102292091D01*
X170895064Y-102480607D01*
X170571196Y-102639527D01*
X170216639Y-102767077D01*
X169835129Y-102861480D01*
X169766806Y-102873132D01*
X169623143Y-102889856D01*
X169464421Y-102900601D01*
X169301228Y-102905344D01*
X169144149Y-102904059D01*
X169003771Y-102896723D01*
X168890681Y-102883311D01*
X168815466Y-102863801D01*
X168777927Y-102846574D01*
X168735162Y-102819548D01*
X168721823Y-102793808D01*
X168740958Y-102767404D01*
X168795618Y-102738391D01*
X168888853Y-102704821D01*
X169023714Y-102664746D01*
X169203251Y-102616219D01*
X169404429Y-102561992D01*
X169601612Y-102504963D01*
X169767365Y-102451577D01*
X169910566Y-102398750D01*
X170040098Y-102343401D01*
X170164841Y-102282447D01*
X170300161Y-102205975D01*
X170440032Y-102115067D01*
X170575786Y-102016333D01*
X170701079Y-101915187D01*
X170809569Y-101817040D01*
X170894915Y-101727305D01*
X170950773Y-101651392D01*
X170970802Y-101594715D01*
X170965560Y-101593905D01*
X170924466Y-101599050D01*
X170851422Y-101611966D01*
X170757100Y-101630850D01*
X170668933Y-101646306D01*
X170528488Y-101662120D01*
X170378607Y-101670931D01*
X170228941Y-101672898D01*
X170089140Y-101668179D01*
X169968856Y-101656935D01*
X169877740Y-101639322D01*
X169825443Y-101615502D01*
X169795529Y-101584126D01*
X169777774Y-101538595D01*
X169796545Y-101487195D01*
X169853446Y-101418656D01*
X169862639Y-101409377D01*
X169918493Y-101365211D01*
X169999879Y-101317935D01*
X170113852Y-101263807D01*
X170267466Y-101199086D01*
X170333483Y-101172202D01*
X170549221Y-101082770D01*
X170762045Y-100992319D01*
X170964868Y-100904006D01*
X171150601Y-100820984D01*
X171312156Y-100746408D01*
X171442443Y-100683435D01*
X171534376Y-100635217D01*
X171704029Y-100533212D01*
X171995165Y-100323298D01*
X172243206Y-100093853D01*
X172447227Y-99845786D01*
X172606306Y-99580005D01*
X172643289Y-99503499D01*
X172704629Y-99357033D01*
X172740274Y-99227840D01*
X172752308Y-99100641D01*
X172742813Y-98960156D01*
X172713874Y-98791106D01*
X172707675Y-98759371D01*
X172691132Y-98648426D01*
X172692573Y-98581136D01*
X172713122Y-98555645D01*
X172753909Y-98570093D01*
X172816059Y-98622623D01*
X172859757Y-98673645D01*
X172916187Y-98755618D01*
X172972894Y-98850600D01*
X173022591Y-98945487D01*
X173057993Y-99027178D01*
X173071812Y-99082569D01*
X173076487Y-99090778D01*
X173098256Y-99072779D01*
X173132959Y-99025559D01*
X173175231Y-98957883D01*
X173219710Y-98878516D01*
X173261031Y-98796221D01*
X173293833Y-98719764D01*
X173316074Y-98656151D01*
X173363154Y-98486964D01*
X173401586Y-98301872D01*
X173427546Y-98121013D01*
X173437212Y-97964526D01*
X173437533Y-97783947D01*
X173238131Y-97800577D01*
X173233291Y-97800992D01*
X173143206Y-97810924D01*
X173017135Y-97827593D01*
X172866374Y-97849370D01*
X172702219Y-97874629D01*
X172535968Y-97901742D01*
X172501813Y-97907454D01*
X172347497Y-97932495D01*
X172206728Y-97954155D01*
X172088148Y-97971179D01*
X172000402Y-97982317D01*
X171952132Y-97986316D01*
X171908454Y-97984174D01*
X171880420Y-97969318D01*
X171878863Y-97932063D01*
X171891313Y-97900696D01*
X171949146Y-97844728D01*
X172049666Y-97787769D01*
X172189030Y-97731120D01*
X172363395Y-97676079D01*
X172568915Y-97623945D01*
X172801749Y-97576017D01*
X173058051Y-97533593D01*
X173119851Y-97524458D01*
X173246075Y-97505083D01*
X173333659Y-97489688D01*
X173389599Y-97476353D01*
X173420894Y-97463160D01*
X173434539Y-97448188D01*
X173437533Y-97429520D01*
X173435512Y-97406696D01*
X173423827Y-97340934D01*
X173404064Y-97250335D01*
X173378900Y-97145257D01*
X173351013Y-97036058D01*
X173323081Y-96933094D01*
X173297781Y-96846725D01*
X173277792Y-96787308D01*
X173265790Y-96765201D01*
X173264880Y-96765252D01*
X173241652Y-96771908D01*
X173191070Y-96790571D01*
X173110202Y-96822427D01*
X172996116Y-96868665D01*
X172845880Y-96930470D01*
X172656564Y-97009030D01*
X172425234Y-97105533D01*
X172373739Y-97126453D01*
X172249500Y-97171950D01*
X172139596Y-97205483D01*
X172051653Y-97225197D01*
X171993295Y-97229239D01*
X171972148Y-97215753D01*
X171972446Y-97211493D01*
X171994090Y-97163206D01*
X172043030Y-97097848D01*
X172109459Y-97027151D01*
X172183570Y-96962848D01*
X172224602Y-96935433D01*
X172317077Y-96883780D01*
X172438683Y-96822901D01*
X172579466Y-96757380D01*
X172729473Y-96691804D01*
X172878750Y-96630755D01*
X173017343Y-96578820D01*
X173074811Y-96557521D01*
X173120305Y-96533905D01*
X173135988Y-96508495D01*
X173131682Y-96472124D01*
X173117451Y-96425253D01*
X173048874Y-96287842D01*
X172945231Y-96148993D01*
X172815436Y-96017070D01*
X172668404Y-95900436D01*
X172513049Y-95807457D01*
X172358286Y-95746495D01*
X172346921Y-95743287D01*
X172265922Y-95715107D01*
X172218465Y-95683421D01*
X172191078Y-95639619D01*
X172182835Y-95617698D01*
X172176705Y-95561015D01*
X172206981Y-95518859D01*
X172279634Y-95480497D01*
X172298014Y-95473426D01*
X172430878Y-95449023D01*
X172581133Y-95459879D01*
X172735370Y-95505266D01*
X172747419Y-95510214D01*
X172819079Y-95538397D01*
X172857477Y-95548304D01*
X172872942Y-95540768D01*
X172875802Y-95516626D01*
X172874767Y-95504882D01*
X172858956Y-95441675D01*
X172826568Y-95344725D01*
X172780812Y-95221962D01*
X172724898Y-95081316D01*
X172662032Y-94930714D01*
X172595425Y-94778088D01*
X172528284Y-94631366D01*
X172463818Y-94498477D01*
X172446999Y-94464688D01*
X172380848Y-94325390D01*
X172318673Y-94185322D01*
X172266801Y-94059113D01*
X172231557Y-93961392D01*
X172230213Y-93957128D01*
X172190817Y-93823586D01*
X172171411Y-93730979D01*
X172173327Y-93675194D01*
X172197899Y-93652122D01*
X172246461Y-93657650D01*
X172320346Y-93687667D01*
X172378511Y-93719704D01*
X172481410Y-93799726D01*
X172589197Y-93913876D01*
X172705493Y-94066190D01*
X172833914Y-94260707D01*
X173016501Y-94552655D01*
X173147642Y-94582879D01*
X173180171Y-94589763D01*
X173264261Y-94596206D01*
X173313858Y-94572799D01*
X173334872Y-94514200D01*
X173333208Y-94415066D01*
X173328876Y-94381527D01*
X173285713Y-94234378D01*
X173202100Y-94065727D01*
X173079516Y-93877902D01*
X172919438Y-93673235D01*
X172723346Y-93454054D01*
X172571910Y-93302531D01*
X172392962Y-93147374D01*
X172227665Y-93031727D01*
X172078347Y-92957177D01*
X171947339Y-92925311D01*
X171865625Y-92918566D01*
X171870527Y-93040682D01*
X171868496Y-93123102D01*
X171855131Y-93188367D01*
X171833026Y-93220402D01*
X171805154Y-93211439D01*
X171800025Y-93204637D01*
X171776591Y-93157688D01*
X171751867Y-93090997D01*
X171721954Y-93002447D01*
X171676060Y-92893958D01*
X171622582Y-92809648D01*
X171551521Y-92734949D01*
X171452879Y-92655289D01*
X171208179Y-92483835D01*
X170799644Y-92245980D01*
X170360498Y-92045457D01*
X169891832Y-91882742D01*
X169394740Y-91758311D01*
X169336331Y-91746753D01*
X169228388Y-91727684D01*
X169137913Y-91714528D01*
X169080015Y-91709624D01*
X169001913Y-91709624D01*
X169012318Y-91927268D01*
X169013860Y-92021960D01*
X169004241Y-92189581D01*
X168981138Y-92359765D01*
X168946756Y-92525173D01*
X168903300Y-92678467D01*
X168852975Y-92812308D01*
X168797987Y-92919358D01*
X168740541Y-92992278D01*
X168682841Y-93023730D01*
X168671602Y-93024481D01*
X168647385Y-93016835D01*
X168624374Y-92991195D01*
X168599981Y-92941677D01*
X168571619Y-92862395D01*
X168536703Y-92747466D01*
X168492645Y-92591003D01*
X168397733Y-92319477D01*
X168260897Y-92051873D01*
X168091883Y-91814756D01*
X167952403Y-91648566D01*
X167740934Y-91641526D01*
X167529464Y-91634487D01*
X167616006Y-91821796D01*
X167655579Y-91914271D01*
X167736640Y-92155262D01*
X167801200Y-92425504D01*
X167845995Y-92712354D01*
X167854299Y-92798936D01*
X167863006Y-92966953D01*
X167864649Y-93145660D01*
X167859656Y-93323199D01*
X167848457Y-93487713D01*
X167831481Y-93627343D01*
X167809157Y-93730233D01*
X167794807Y-93771738D01*
X167754421Y-93858477D01*
X167708893Y-93927007D01*
X167665150Y-93967974D01*
X167630120Y-93972022D01*
X167622801Y-93963491D01*
X167599473Y-93916103D01*
X167569710Y-93838659D01*
X167538164Y-93742760D01*
X167455811Y-93505045D01*
X167322916Y-93201349D01*
X167165885Y-92911591D01*
X166991123Y-92647324D01*
X166805033Y-92420100D01*
X166792896Y-92407284D01*
X166711581Y-92329151D01*
X166605222Y-92235652D01*
X166486240Y-92137420D01*
X166367052Y-92045089D01*
X166073975Y-91826620D01*
X165919963Y-91838689D01*
X165845977Y-91845924D01*
X165782242Y-91855318D01*
X165752753Y-91863955D01*
X165754332Y-91879743D01*
X165776880Y-91926129D01*
X165816912Y-91989587D01*
X165828617Y-92006834D01*
X165879730Y-92089433D01*
X165927023Y-92180884D01*
X165974714Y-92290741D01*
X166027023Y-92428559D01*
X166088168Y-92603892D01*
X166125401Y-92720416D01*
X166175747Y-92918516D01*
X166199522Y-93084807D01*
X166196659Y-93217038D01*
X166167092Y-93312958D01*
X166110755Y-93370316D01*
X166100804Y-93375136D01*
X166083177Y-93378205D01*
X166063030Y-93369626D01*
X166036248Y-93344577D01*
X165998721Y-93298238D01*
X165946333Y-93225788D01*
X165874973Y-93122407D01*
X165780527Y-92983273D01*
X165718244Y-92894696D01*
X165537834Y-92675428D01*
X165338064Y-92487702D01*
X165109249Y-92323164D01*
X164841705Y-92173460D01*
X164684051Y-92094631D01*
X164548628Y-92136788D01*
X164508211Y-92149640D01*
X164254704Y-92240313D01*
X163973382Y-92355979D01*
X163673369Y-92492343D01*
X163363791Y-92645105D01*
X163053772Y-92809971D01*
X162752437Y-92982641D01*
X162514107Y-93128107D01*
X162268361Y-93288437D01*
X162044202Y-93448461D01*
X161828871Y-93617807D01*
X161609606Y-93806104D01*
X161373646Y-94022980D01*
X161142739Y-94240708D01*
X161127644Y-94471079D01*
X161123717Y-94524362D01*
X161113928Y-94624320D01*
X161103096Y-94702497D01*
X161092929Y-94745390D01*
X161075696Y-94771041D01*
X161036471Y-94779808D01*
X160988752Y-94745091D01*
X160936520Y-94668837D01*
X160925529Y-94649490D01*
X160869907Y-94573761D01*
X160806458Y-94533428D01*
X160723124Y-94523767D01*
X160607853Y-94540055D01*
X160458204Y-94577135D01*
X160181294Y-94683230D01*
X159921482Y-94834769D01*
X159677889Y-95032217D01*
X159540568Y-95171578D01*
X159390085Y-95345842D01*
X159237955Y-95541499D01*
X159088026Y-95752169D01*
X158944147Y-95971473D01*
X158810167Y-96193031D01*
X158689935Y-96410465D01*
X158587299Y-96617395D01*
X158506109Y-96807441D01*
X158450213Y-96974226D01*
X158423459Y-97111369D01*
X158418169Y-97186942D01*
X158423010Y-97240364D01*
X158444384Y-97280076D01*
X158487801Y-97324308D01*
X158608169Y-97414944D01*
X158769778Y-97484878D01*
X158942437Y-97509463D01*
X158966051Y-97509347D01*
X159029325Y-97505288D01*
X159090864Y-97492843D01*
X159161890Y-97468387D01*
X159253624Y-97428293D01*
X159377287Y-97368935D01*
X159481287Y-97316712D01*
X159592009Y-97255165D01*
X159684027Y-97193629D01*
X159772568Y-97121654D01*
X159872855Y-97028791D01*
X159891399Y-97010874D01*
X159999686Y-96900107D01*
X160094431Y-96789571D01*
X160181900Y-96670121D01*
X160268356Y-96532612D01*
X160360065Y-96367899D01*
X160463290Y-96166835D01*
X160487213Y-96119277D01*
X160567766Y-95965823D01*
X160634925Y-95851760D01*
X160692503Y-95772392D01*
X160744312Y-95723021D01*
X160794164Y-95698950D01*
X160845870Y-95695482D01*
X160891969Y-95705415D01*
X160926106Y-95735954D01*
X160953626Y-95800489D01*
X160965225Y-95850831D01*
X160974618Y-95959591D01*
X160974090Y-96093450D01*
X160964297Y-96238721D01*
X160945900Y-96381719D01*
X160919556Y-96508759D01*
X160881085Y-96628183D01*
X160812233Y-96793680D01*
X160726524Y-96967097D01*
X160632003Y-97132362D01*
X160536719Y-97273402D01*
X160510767Y-97307690D01*
X160364380Y-97491669D01*
X160226637Y-97645077D01*
X160086004Y-97779054D01*
X159930944Y-97904742D01*
X159749921Y-98033282D01*
X159421671Y-98255070D01*
X159402286Y-98371049D01*
X159395708Y-98433551D01*
X159390293Y-98538532D01*
X159386715Y-98672196D01*
X159384923Y-98824855D01*
X159384865Y-98986821D01*
X159386490Y-99148404D01*
X159389746Y-99299916D01*
X159394582Y-99431668D01*
X159400947Y-99533972D01*
X159408789Y-99597140D01*
X159431862Y-99705905D01*
X159549130Y-99517756D01*
X159562462Y-99496562D01*
X159631987Y-99390579D01*
X159703719Y-99287172D01*
X159764069Y-99206044D01*
X159790734Y-99173086D01*
X159842611Y-99117983D01*
X159884343Y-99092970D01*
X159927185Y-99090043D01*
X159992629Y-99097605D01*
X160009802Y-99402893D01*
X160020885Y-99571866D01*
X160038000Y-99742511D01*
X160061710Y-99882284D01*
X160094898Y-100001072D01*
X160140444Y-100108763D01*
X160201231Y-100215245D01*
X160280141Y-100330406D01*
X160364818Y-100438988D01*
X160565576Y-100652360D01*
X160804758Y-100859851D01*
X161075454Y-101056642D01*
X161370755Y-101237918D01*
X161683752Y-101398860D01*
X162007533Y-101534653D01*
X162092869Y-101564700D01*
X162216651Y-101603636D01*
X162341165Y-101638439D01*
X162456998Y-101666848D01*
X162554735Y-101686598D01*
X162624962Y-101695427D01*
X162658264Y-101691072D01*
X162657707Y-101678553D01*
X162638217Y-101631232D01*
X162600199Y-101558577D01*
X162548446Y-101470228D01*
X162531734Y-101442803D01*
X162454352Y-101307728D01*
X162401844Y-101195102D01*
X162369799Y-101091303D01*
X162353807Y-100982710D01*
X162349456Y-100855701D01*
X162350381Y-100781895D01*
X162356646Y-100695997D01*
X162370686Y-100638811D01*
X162394652Y-100598067D01*
X162439847Y-100542253D01*
X162575831Y-100748742D01*
X162684066Y-100897758D01*
X162814407Y-101051178D01*
X162953444Y-101193839D01*
X163090638Y-101314948D01*
X163215450Y-101403713D01*
X163257303Y-101426832D01*
X163387872Y-101485141D01*
X163550305Y-101543761D01*
X163732802Y-101598993D01*
X163923568Y-101647137D01*
X164110806Y-101684493D01*
X164140862Y-101689281D01*
X164264272Y-101705425D01*
X164415094Y-101721327D01*
X164576983Y-101735375D01*
X164733594Y-101745955D01*
X164907223Y-101756878D01*
X165044800Y-101769233D01*
X165144659Y-101784243D01*
X165212467Y-101803541D01*
X165253887Y-101828759D01*
X165274585Y-101861531D01*
X165280225Y-101903487D01*
X165278401Y-101934587D01*
X165263344Y-101974264D01*
X165224559Y-102011348D01*
X165152004Y-102057936D01*
X165092946Y-102090550D01*
X164890367Y-102173416D01*
X164652065Y-102234360D01*
X164384643Y-102271966D01*
X164094705Y-102284816D01*
X164024211Y-102285131D01*
X163942653Y-102287659D01*
X163896874Y-102293967D01*
X163878758Y-102305532D01*
X163880191Y-102323830D01*
X163897317Y-102346502D01*
X163946098Y-102379606D01*
X164029242Y-102419886D01*
X164150972Y-102469340D01*
X164315514Y-102529971D01*
X164459166Y-102580153D01*
X164632794Y-102636248D01*
X164792478Y-102680662D01*
X164948683Y-102715336D01*
X165111875Y-102742208D01*
X165292517Y-102763218D01*
X165501075Y-102780304D01*
X165748015Y-102795406D01*
X165824436Y-102799889D01*
X165949156Y-102808593D01*
X166052200Y-102817544D01*
X166124528Y-102825916D01*
X166157101Y-102832880D01*
X166162728Y-102836872D01*
X166183228Y-102879447D01*
X166170780Y-102932993D01*
X166128927Y-102979112D01*
X166126243Y-102980845D01*
X166051693Y-103019378D01*
X165946780Y-103062556D01*
X165827945Y-103104548D01*
X165711629Y-103139522D01*
X165614276Y-103161647D01*
X165504529Y-103174451D01*
X165345381Y-103182707D01*
X165161401Y-103184419D01*
X164965100Y-103179712D01*
X164768989Y-103168708D01*
X164585579Y-103151530D01*
X164346560Y-103118970D01*
X163941703Y-103044769D01*
X163527381Y-102946979D01*
X163109424Y-102828002D01*
X162693664Y-102690237D01*
X162285931Y-102536085D01*
X161892057Y-102367947D01*
X161517872Y-102188223D01*
X161169208Y-101999314D01*
X160851895Y-101803620D01*
X160571764Y-101603542D01*
X160334647Y-101401481D01*
X160184891Y-101254524D01*
X160001384Y-101053754D01*
X159852561Y-100860711D01*
X159732733Y-100667786D01*
X159636212Y-100467369D01*
X159622927Y-100436122D01*
X159588219Y-100358546D01*
X159562215Y-100306345D01*
X159549747Y-100289462D01*
X159547567Y-100294479D01*
X159536942Y-100336057D01*
X159521162Y-100409643D01*
X159502771Y-100503646D01*
X159491041Y-100562659D01*
X159460188Y-100683219D01*
X159426181Y-100762547D01*
X159386147Y-100806124D01*
X159337212Y-100819432D01*
X159327221Y-100818667D01*
X159263951Y-100787891D01*
X159188332Y-100714457D01*
X159102816Y-100601536D01*
X159009857Y-100452298D01*
X158911908Y-100269912D01*
X158867575Y-100174038D01*
X158782087Y-99933449D01*
X158717310Y-99666720D01*
X158676201Y-99387557D01*
X158661715Y-99109667D01*
X158663957Y-99025971D01*
X158670790Y-98908918D01*
X158681152Y-98774494D01*
X158693964Y-98633720D01*
X158708147Y-98497617D01*
X158722619Y-98377206D01*
X158736303Y-98283509D01*
X158748118Y-98227548D01*
X158746908Y-98203642D01*
X158715562Y-98180805D01*
X158643926Y-98158599D01*
X158578182Y-98139767D01*
X158402107Y-98068620D01*
X158237466Y-97974427D01*
X158102920Y-97867239D01*
X158037367Y-97797142D01*
X157919337Y-97621406D01*
X157844649Y-97423264D01*
X157813303Y-97202799D01*
X157825298Y-96960090D01*
X157880633Y-96695220D01*
X157979307Y-96408269D01*
X158121320Y-96099319D01*
X158128795Y-96084774D01*
X158235670Y-95887575D01*
X158359516Y-95675614D01*
X158494769Y-95457230D01*
X158635867Y-95240765D01*
X158777245Y-95034561D01*
X158913340Y-94846958D01*
X159038589Y-94686297D01*
X159147427Y-94560920D01*
X159155519Y-94552430D01*
X159236588Y-94474861D01*
X159334759Y-94390607D01*
X159439508Y-94307713D01*
X159540314Y-94234224D01*
X159626653Y-94178185D01*
X159688003Y-94147640D01*
X159688948Y-94127399D01*
X159665032Y-94071240D01*
X159617295Y-93983977D01*
X159548044Y-93870183D01*
X159537683Y-93853748D01*
X159363672Y-93571130D01*
X159208529Y-93306394D01*
X159074050Y-93063031D01*
X158962029Y-92844532D01*
X158874260Y-92654390D01*
X158812537Y-92496094D01*
X158778654Y-92373137D01*
X158773697Y-92344863D01*
X159425391Y-92344863D01*
X159425736Y-92347120D01*
X159444219Y-92402761D01*
X159484712Y-92492529D01*
X159543364Y-92609703D01*
X159616322Y-92747561D01*
X159699734Y-92899382D01*
X159789749Y-93058446D01*
X159882513Y-93218029D01*
X159974176Y-93371412D01*
X160060885Y-93511873D01*
X160138787Y-93632690D01*
X160204031Y-93727142D01*
X160252765Y-93788507D01*
X160255102Y-93791023D01*
X160314296Y-93838594D01*
X160379185Y-93856475D01*
X160454669Y-93842924D01*
X160545648Y-93796200D01*
X160657020Y-93714563D01*
X160793686Y-93596269D01*
X160851289Y-93544261D01*
X161160291Y-93278185D01*
X161467474Y-93037233D01*
X161782821Y-92814668D01*
X162116313Y-92603755D01*
X162477932Y-92397756D01*
X162877660Y-92189937D01*
X163451622Y-91922633D01*
X164085940Y-91672203D01*
X164733697Y-91463313D01*
X165399801Y-91294566D01*
X166089156Y-91164566D01*
X166806668Y-91071918D01*
X166970797Y-91059186D01*
X167177742Y-91049733D01*
X167412169Y-91043962D01*
X167663300Y-91041814D01*
X167920361Y-91043225D01*
X168172575Y-91048136D01*
X168409168Y-91056483D01*
X168619362Y-91068207D01*
X168792383Y-91083245D01*
X168968640Y-91104284D01*
X169531464Y-91192922D01*
X170069864Y-91310888D01*
X170575300Y-91456394D01*
X170710131Y-91505896D01*
X170877455Y-91576526D01*
X171057777Y-91659720D01*
X171236662Y-91748553D01*
X171399674Y-91836102D01*
X171532377Y-91915443D01*
X171566474Y-91937278D01*
X171640793Y-91983130D01*
X171693878Y-92013368D01*
X171715982Y-92022318D01*
X171719372Y-92015826D01*
X171735717Y-91970419D01*
X171761871Y-91889110D01*
X171795505Y-91779741D01*
X171834287Y-91650151D01*
X171875886Y-91508180D01*
X171917970Y-91361666D01*
X171958210Y-91218452D01*
X171994273Y-91086375D01*
X172019731Y-90990584D01*
X172075359Y-90773453D01*
X172117046Y-90596792D01*
X172145699Y-90456308D01*
X172162226Y-90347710D01*
X172167533Y-90266707D01*
X172167352Y-90255298D01*
X172159421Y-90204413D01*
X172135246Y-90161626D01*
X172088639Y-90122792D01*
X172013411Y-90083767D01*
X171903374Y-90040403D01*
X171752341Y-89988555D01*
X171701755Y-89972065D01*
X171292261Y-89855025D01*
X170844375Y-89753783D01*
X170365442Y-89669651D01*
X169862808Y-89603942D01*
X169343816Y-89557970D01*
X169265398Y-89553332D01*
X169069744Y-89545801D01*
X168841533Y-89541278D01*
X168589807Y-89539620D01*
X168323607Y-89540684D01*
X168051976Y-89544326D01*
X167783954Y-89550404D01*
X167528582Y-89558775D01*
X167294902Y-89569294D01*
X167091955Y-89581820D01*
X166928783Y-89596208D01*
X166823490Y-89607893D01*
X166202402Y-89686857D01*
X165616022Y-89780195D01*
X165053352Y-89890465D01*
X164503396Y-90020225D01*
X163955158Y-90172034D01*
X163397640Y-90348449D01*
X162819845Y-90552029D01*
X162613834Y-90628768D01*
X162076210Y-90837860D01*
X161577085Y-91046084D01*
X161109093Y-91256842D01*
X160664871Y-91473534D01*
X160237054Y-91699562D01*
X159818277Y-91938327D01*
X159709953Y-92004110D01*
X159588132Y-92085867D01*
X159503340Y-92156088D01*
X159451002Y-92219506D01*
X159426543Y-92280853D01*
X159425391Y-92344863D01*
X158773697Y-92344863D01*
X158771415Y-92331844D01*
X158763377Y-92251791D01*
X158770863Y-92185860D01*
X158795365Y-92110602D01*
X158808889Y-92079174D01*
X158862418Y-91984062D01*
X158924192Y-91901386D01*
X158982614Y-91846801D01*
X159084752Y-91767021D01*
X159223464Y-91668549D01*
X159395350Y-91553654D01*
X159597010Y-91424602D01*
X159825046Y-91283662D01*
X160076056Y-91133101D01*
X160114484Y-91110270D01*
X160249918Y-91028252D01*
X160372421Y-90951752D01*
X160474653Y-90885498D01*
X160549274Y-90834222D01*
X160588941Y-90802653D01*
X160603281Y-90784908D01*
X160644125Y-90723962D01*
X160701489Y-90630903D01*
X160771219Y-90512698D01*
X160785736Y-90487295D01*
X161462018Y-90487295D01*
X161488344Y-90478137D01*
X161546372Y-90451745D01*
X161621464Y-90414345D01*
X161642064Y-90403790D01*
X161691307Y-90379449D01*
X161743954Y-90355155D01*
X161805324Y-90328836D01*
X161880740Y-90298426D01*
X161975523Y-90261854D01*
X162094994Y-90217051D01*
X162244474Y-90161950D01*
X162429283Y-90094479D01*
X162654745Y-90012571D01*
X162746678Y-89979411D01*
X163300209Y-89788834D01*
X163828716Y-89623800D01*
X164344364Y-89481131D01*
X164859314Y-89357652D01*
X165385728Y-89250185D01*
X165935770Y-89155554D01*
X166046947Y-89137148D01*
X166174316Y-89113576D01*
X166275580Y-89091879D01*
X166343313Y-89073681D01*
X166370092Y-89060604D01*
X166371383Y-89045561D01*
X166359412Y-88982105D01*
X166328141Y-88875135D01*
X166277842Y-88725440D01*
X166208785Y-88533811D01*
X166121243Y-88301038D01*
X166015486Y-88027910D01*
X165967016Y-87903702D01*
X165910835Y-87758481D01*
X165862945Y-87633271D01*
X165825754Y-87534427D01*
X165801673Y-87468306D01*
X165793110Y-87441266D01*
X165790119Y-87424084D01*
X165770889Y-87361848D01*
X165736007Y-87264401D01*
X165687995Y-87137861D01*
X165629377Y-86988343D01*
X165562676Y-86821963D01*
X165490414Y-86644836D01*
X165415115Y-86463080D01*
X165339303Y-86282809D01*
X165265499Y-86110140D01*
X165196228Y-85951189D01*
X165134013Y-85812071D01*
X165081375Y-85698903D01*
X165040840Y-85617800D01*
X165027921Y-85593784D01*
X164997008Y-85540711D01*
X165458076Y-85540711D01*
X165466527Y-85572297D01*
X165493164Y-85639751D01*
X165535007Y-85736174D01*
X165589077Y-85854666D01*
X165652393Y-85988327D01*
X165668467Y-86022194D01*
X165730667Y-86159644D01*
X165806305Y-86334518D01*
X165892738Y-86540396D01*
X165987319Y-86770855D01*
X166087406Y-87019471D01*
X166190354Y-87279823D01*
X166293519Y-87545489D01*
X166294535Y-87548130D01*
X166382695Y-87777037D01*
X166467812Y-87997517D01*
X166547820Y-88204260D01*
X166620655Y-88391955D01*
X166684253Y-88555289D01*
X166736550Y-88688952D01*
X166775480Y-88787632D01*
X166798981Y-88846018D01*
X166872284Y-89023085D01*
X167266879Y-89019647D01*
X167338464Y-89018751D01*
X167483124Y-89015398D01*
X167615747Y-89010421D01*
X167724063Y-89004331D01*
X167795802Y-88997639D01*
X167844219Y-88993259D01*
X167939942Y-88988277D01*
X168069349Y-88983759D01*
X168224206Y-88979939D01*
X168396281Y-88977054D01*
X168577341Y-88975336D01*
X169224552Y-88971603D01*
X168186571Y-87944978D01*
X168051032Y-87811126D01*
X167853371Y-87616624D01*
X167659918Y-87427042D01*
X167475019Y-87246597D01*
X167303021Y-87079508D01*
X167148268Y-86929994D01*
X167015107Y-86802274D01*
X166907884Y-86700565D01*
X166830945Y-86629087D01*
X166816745Y-86616176D01*
X166662489Y-86478262D01*
X166501305Y-86337966D01*
X166337555Y-86198750D01*
X166175600Y-86064079D01*
X166019802Y-85937414D01*
X165874522Y-85822219D01*
X165744123Y-85721957D01*
X165632966Y-85640090D01*
X165545412Y-85580081D01*
X165485824Y-85545394D01*
X165458562Y-85539492D01*
X165458076Y-85540711D01*
X164997008Y-85540711D01*
X164970853Y-85495808D01*
X164924988Y-85438283D01*
X164883818Y-85417389D01*
X164840841Y-85429306D01*
X164789550Y-85470213D01*
X164778463Y-85480729D01*
X164665642Y-85596164D01*
X164531198Y-85746245D01*
X164379600Y-85925284D01*
X164215320Y-86127590D01*
X164042829Y-86347477D01*
X163866597Y-86579255D01*
X163691094Y-86817235D01*
X163520792Y-87055728D01*
X163360161Y-87289047D01*
X163296431Y-87384258D01*
X163102181Y-87681744D01*
X162891909Y-88013375D01*
X162669881Y-88372069D01*
X162440363Y-88750744D01*
X162207618Y-89142318D01*
X161975912Y-89539709D01*
X161749510Y-89935835D01*
X161532677Y-90323614D01*
X161521550Y-90344029D01*
X161484448Y-90417329D01*
X161463160Y-90468430D01*
X161462018Y-90487295D01*
X160785736Y-90487295D01*
X160849161Y-90376312D01*
X160931163Y-90228710D01*
X160932579Y-90226125D01*
X161193845Y-89752977D01*
X161438323Y-89318516D01*
X161669495Y-88917025D01*
X161890848Y-88542791D01*
X162105864Y-88190097D01*
X162318027Y-87853228D01*
X162530822Y-87526468D01*
X162747733Y-87204102D01*
X162972245Y-86880414D01*
X163139901Y-86643074D01*
X163332738Y-86373499D01*
X163505031Y-86137334D01*
X163660162Y-85930334D01*
X163801514Y-85748252D01*
X163932469Y-85586843D01*
X164056408Y-85441861D01*
X164176715Y-85309060D01*
X164296772Y-85184193D01*
X164419960Y-85063016D01*
X164427149Y-85056128D01*
X164546555Y-84945562D01*
X164643320Y-84866820D01*
X164726590Y-84815305D01*
X164805511Y-84786424D01*
X164889230Y-84775581D01*
X164986892Y-84778180D01*
X164996390Y-84778939D01*
X165087008Y-84793619D01*
X165185078Y-84824100D01*
X165296700Y-84873370D01*
X165427975Y-84944419D01*
X165585004Y-85040236D01*
X165773887Y-85163811D01*
X165824334Y-85197856D01*
X166046729Y-85354358D01*
X166280492Y-85529260D01*
X166527700Y-85724402D01*
X166790427Y-85941622D01*
X167070749Y-86182762D01*
X167370742Y-86449660D01*
X167692480Y-86744157D01*
X168038040Y-87068092D01*
X168409497Y-87423305D01*
X168808926Y-87811636D01*
X169238403Y-88234925D01*
X169266595Y-88262870D01*
X169459158Y-88453349D01*
X169620711Y-88612223D01*
X169754233Y-88742216D01*
X169862704Y-88846052D01*
X169949101Y-88926455D01*
X170000005Y-88971603D01*
X170016406Y-88986149D01*
G37*
%TD*%
M02*
